# xmcd
#
# Track frame offsets:
#   150
#   19756
#   44172
#   74947
#   86532
#   110121
#   141710
#   165783
#   186923
#   211157
#   221398
#   239421
#   255483
#   271655
#   289410
#   301458
#
# Disc length: 4177 seconds
#
# Revision: 0
# Processed by: cddbd v1.4PL0 Copyright (c) Steve Scherf et al.
# Submitted via: uFREEDB 1.6.0
#
DISCID=fa104f10
DTITLE=Buddy Guy - Volume Two
DYEAR=1970
DGENRE=Blues
TTITLE0=?
TTITLE1=?
TTITLE2=?
TTITLE3=?
TTITLE4=?
TTITLE5=?
TTITLE6=?
TTITLE7=?
TTITLE8=?
TTITLE9=?
TTITLE10=?
TTITLE11=?
TTITLE12=?
TTITLE13=?
TTITLE14=?
TTITLE15=?
EXTD=
EXTT0=
EXTT1=
EXTT2=
EXTT3=
EXTT4=
EXTT5=
EXTT6=
EXTT7=
EXTT8=
EXTT9=
EXTT10=
EXTT11=
EXTT12=
EXTT13=
EXTT14=
EXTT15=
PLAYORDER=
